Coordinates
version=1
nRows=18
nColumns=33
inDegrees=yes

Units are S.I. units (second, meters, Newtons, ...)
Angles are in degrees.

endheader
time	ground_thorax_rot_x	ground_thorax_rot_y	ground_thorax_rot_z	ground_thorax_tx	ground_thorax_ty	ground_thorax_tz	clav_prot_r	clav_elev_r	scapula_abduction_r	scapula_elevation_r	scapula_upward_rot_r	scapula_winging_r	shoulder_elv_r	plane_of_elev_r	axial_rot_r	elbow_flexion_r	pro_sup_r	wrist_flex_r	wrist_dev_r	clav_prot_l	clav_elev_l	scapula_abduction_l	scapula_elevation_l	scapula_upward_rot_l	scapula_winging_l	shoulder_elv_l	plane_of_elev_l	axial_rot_l	elbow_flexion_l	pro_sup_l	wrist_flex_l	wrist_dev_l	
1.4700	1.845505	-1.151462	-6.274286	-0.083772	1.055003	-0.003308	-11.837839	-9.946380	-12.007507	-2.608201	3.361796	1.775947	56.517092	-44.425203	62.689574	58.048756	-2.286996	13.026525	10.010309	-6.561502	-7.742853	6.062377	-2.614481	-8.102635	-2.723752	60.962304	-50.837940	-46.612681	60.090772	-1.133577	9.279553	-18.212929	
1.4800	1.774841	-0.998399	-6.383636	-0.083476	1.054756	-0.003214	-12.051660	-9.782330	-12.079231	-2.702874	4.051735	1.598466	55.619249	-44.809689	62.182128	57.908062	-1.990477	13.352231	10.201515	-6.255592	-7.400044	5.309283	-2.636349	-7.300233	-2.340861	59.886638	-51.193608	-46.019776	60.032118	-0.278949	9.736662	-18.579864	
1.4900	1.702985	-0.832526	-6.504733	-0.083204	1.054528	-0.003129	-12.269217	-9.619188	-12.141142	-2.810151	4.776126	1.414668	54.679877	-45.202458	61.666455	57.742408	-1.680715	13.691342	10.407414	-5.933417	-7.053405	4.513948	-2.646211	-6.455048	-1.941502	58.765438	-51.547764	-45.401169	59.951038	0.612980	10.212666	-18.958545	
1.5000	1.654359	-0.760106	-6.581260	-0.082929	1.054400	-0.003057	-12.394413	-9.524294	-12.193282	-2.859270	5.158308	1.315807	54.164405	-45.423369	61.322467	57.720036	-1.540326	13.865732	10.445363	-5.754616	-6.853800	4.082506	-2.668041	-6.012198	-1.723459	58.154921	-51.784908	-45.068390	59.949553	1.100608	10.414848	-19.171470	
1.5100	1.618059	-0.732626	-6.636077	-0.082659	1.054333	-0.002994	-12.467380	-9.468129	-12.234616	-2.879521	5.358464	1.262742	53.873407	-45.549869	61.074372	57.769263	-1.491707	13.950568	10.392512	-5.651513	-6.737699	3.841109	-2.689397	-5.778031	-1.602059	57.820543	-51.952047	-44.885596	59.983011	1.372645	10.465518	-19.294155	
1.5200	1.590546	-0.744966	-6.669340	-0.082395	1.054309	-0.002932	-12.499453	-9.443761	-12.269935	-2.876482	5.410192	1.247497	53.769271	-45.597366	60.904972	57.883396	-1.520108	13.961231	10.264468	-5.613082	-6.690320	3.760675	-2.710841	-5.716898	-1.561488	57.717650	-52.061935	-44.825282	60.042384	1.465242	10.387874	-19.340824	
1.5300	1.567964	-0.770687	-6.686889	-0.082132	1.054319	-0.002875	-12.513239	-9.434854	-12.300306	-2.865647	5.399995	1.248753	53.751474	-45.606325	60.789565	58.014145	-1.575411	13.940614	10.124591	-5.607265	-6.676391	3.757546	-2.728781	-5.730599	-1.558829	57.721630	-52.134048	-44.817914	60.099247	1.475780	10.265643	-19.350170	
1.5400	1.543074	-0.793055	-6.698352	-0.081874	1.054327	-0.002813	-12.529396	-9.426341	-12.331156	-2.857760	5.397239	1.249054	53.732156	-45.611499	60.685064	58.147822	-1.627095	13.919474	9.996762	-5.605744	-6.665118	3.759409	-2.741826	-5.737868	-1.557436	57.731328	-52.195617	-44.803515	60.142063	1.487804	10.142289	-19.356509	
1.5500	1.519705	-0.808723	-6.701394	-0.081619	1.054348	-0.002758	-12.546749	-9.418450	-12.359688	-2.853486	5.403419	1.247857	53.714077	-45.612438	60.607071	58.266860	-1.664693	13.898889	9.902049	-5.609248	-6.656201	3.768220	-2.750870	-5.740524	-1.557697	57.742652	-52.238206	-44.785166	60.167308	1.502659	10.035967	-19.360080	
1.5600	1.497696	-0.819507	-6.699430	-0.081379	1.054379	-0.002713	-12.565479	-9.411805	-12.385936	-2.853393	5.418565	1.245228	53.696114	-45.607806	60.546632	58.379788	-1.691077	13.870271	9.825941	-5.616151	-6.650178	3.781795	-2.756512	-5.741279	-1.559438	57.755086	-52.263245	-44.764274	60.179986	1.526286	9.927932	-19.362047	
1.5700	1.481055	-0.821566	-6.698139	-0.081153	1.054425	-0.002684	-12.580397	-9.407909	-12.403147	-2.857000	5.437882	1.242047	53.679398	-45.597561	60.506339	58.474130	-1.704850	13.827033	9.764193	-5.623062	-6.650074	3.794178	-2.756468	-5.741263	-1.562364	57.767470	-52.265489	-44.745270	60.183159	1.561802	9.813074	-19.363242	
1.5800	1.468100	-0.815315	-6.713245	-0.080951	1.054457	-0.002658	-12.591249	-9.405480	-12.412466	-2.862160	5.458390	1.238394	53.655507	-45.581405	60.457406	58.586461	-1.717604	13.731474	9.659456	-5.626380	-6.659662	3.799321	-2.748550	-5.743599	-1.566717	57.785643	-52.245675	-44.725660	60.189639	1.633984	9.607748	-19.366439	
1.5900	1.461050	-0.801894	-6.742504	-0.080762	1.054477	-0.002634	-12.596320	-9.404932	-12.412188	-2.868310	5.477537	1.235030	53.627815	-45.561379	60.406384	58.700813	-1.727221	13.594299	9.524391	-5.625239	-6.677815	3.796072	-2.733911	-5.748571	-1.572097	57.807018	-52.205956	-44.708591	60.198223	1.734779	9.336341	-19.371216	
1.6000	1.456850	-0.783969	-6.779247	-0.080600	1.054486	-0.002613	-12.598271	-9.405411	-12.406052	-2.875411	5.497116	1.231446	53.596763	-45.537894	60.352146	58.821589	-1.735052	13.426672	9.365507	-5.621496	-6.701622	3.787701	-2.714746	-5.755091	-1.578101	57.831838	-52.152957	-44.692026	60.207690	1.857354	9.013444	-19.377066	
1.6100	1.454342	-0.764650	-6.810793	-0.080442	1.054488	-0.002595	-12.596533	-9.406447	-12.395268	-2.881604	5.513030	1.228480	53.568986	-45.515203	60.308230	58.924021	-1.739547	13.273633	9.223576	-5.616682	-6.725149	3.776606	-2.694868	-5.758929	-1.583190	57.856063	-52.099336	-44.677900	60.216077	1.969739	8.721371	-19.382768	
1.6200	1.449454	-0.741660	-6.835431	-0.080308	1.054483	-0.002578	-12.591614	-9.406526	-12.381037	-2.885448	5.524927	1.225323	53.541241	-45.492837	60.275177	59.019030	-1.741725	13.141184	9.100637	-5.612502	-6.747677	3.764721	-2.673612	-5.756776	-1.587052	57.882913	-52.046650	-44.662346	60.223217	2.069310	8.463272	-19.388473	
1.6300	1.442169	-0.718545	-6.843909	-0.080180	1.054476	-0.002567	-12.583349	-9.405892	-12.364190	-2.886399	5.530605	1.222721	53.520106	-45.473573	60.262275	59.085025	-1.740225	13.062813	9.027296	-5.609714	-6.764753	3.753550	-2.654334	-5.746719	-1.588355	57.907929	-52.004389	-44.647969	60.228251	2.131945	8.301836	-19.393550	
1.6400	1.432809	-0.694947	-6.838490	-0.080072	1.054470	-0.002562	-12.572159	-9.405084	-12.344477	-2.885530	5.531687	1.220379	53.504886	-45.455781	60.265852	59.126774	-1.735320	13.029376	8.994884	-5.607964	-6.777624	3.742667	-2.636429	-5.730193	-1.587418	57.931229	-51.969849	-44.634630	60.232295	2.164206	8.220108	-19.398675	
